<svg width="88" height="88" viewBox="0 0 88 88" fill="none" xmlns="http://www.w3.org/2000/svg">
<g opacity="0.2">
<path d="M64.504 35.2917V20.5152C64.504 9.20255 55.3033 0 43.9944 0C32.6892 0 23.4904 9.20255 23.4904 20.5152V35.2917H13.9864V88H74.0136V35.2917H64.504ZM33.7508 20.5152C33.7508 14.8589 38.3474 10.2567 43.9944 10.2567C49.6414 10.2567 54.238 14.8589 54.238 20.5152V35.2917H33.7508V20.5152ZM44.0038 78.8723C44.0038 78.8723 21.9326 69.3477 23.4829 53.0977C24.6962 40.4631 41.3207 43.4214 44.0038 50.6037C46.6812 43.4214 63.3076 40.4631 64.519 53.0977C66.0786 69.3477 44.0038 78.8723 44.0038 78.8723Z" fill="#F2F2F2"/>
</g>
</svg>
