<svg width="42" height="43" viewBox="0 0 42 43" fill="none" xmlns="http://www.w3.org/2000/svg">
<path d="M25.5276 33.4069C24.5274 32.3952 22.906 32.3952 21.906 33.4069L21.3411 33.9783C21.2063 34.1146 20.988 34.1146 20.8533 33.9783L20.2975 33.416C19.2973 32.4043 17.6759 32.4043 16.676 33.416C15.6759 34.4277 15.6759 36.0678 16.676 37.0793L20.8539 41.3051C20.9887 41.4415 21.2069 41.4415 21.3416 41.3051L25.5278 37.07C26.5278 36.0586 26.5278 34.4186 25.5276 33.4069Z" fill="#F05136"/>
<path d="M38.137 20.5671L20.821 0.469437C20.2627 -0.178432 19.3893 -0.15256 18.8705 0.527518L2.74182 21.6643C-1.11124 26.7131 -0.874499 34.7058 3.27028 39.5169C6.15846 42.8692 10.1813 43.7886 13.6593 42.3317C13.8563 42.2491 13.8563 41.9689 13.6607 41.883C12.9515 41.5724 12.2801 41.0636 11.6974 40.3545C9.55068 37.7424 9.42247 33.4076 11.4107 30.6725L19.7335 19.2219C20.0001 18.8549 20.4541 18.8414 20.7419 19.1918L29.7096 30.104C31.8563 32.7161 31.9845 37.0509 29.9962 39.786C29.4955 40.4748 28.908 40.9962 28.2752 41.3492C28.0938 41.4506 28.1137 41.7199 28.3084 41.7922C31.9054 43.1276 35.942 41.9876 38.6653 38.4195C42.5187 33.371 42.282 25.378 38.137 20.5671Z" fill="#F05136"/>
<path d="M8.85459 39.5183C4.63578 34.7072 4.39482 26.7141 8.31656 21.6651L23.0926 2.63824L21.1911 0.469453C20.6228 -0.178438 19.7339 -0.152565 19.2059 0.527536L2.79056 21.6651C-1.13099 26.7139 -0.890043 34.707 3.32841 39.5181H3.32859C6.10634 42.6859 9.91492 43.6797 13.3127 42.5505C11.6986 42.0174 10.1623 41.0094 8.85459 39.5183Z" fill="white"/>
</svg>
