<svg width="48" height="48" viewBox="0 0 48 48" fill="none" xmlns="http://www.w3.org/2000/svg">
<g clip-path="url(#clip0)">
<path d="M24 47.9996C10.7358 47.9996 0 37.2506 0 24C0 10.7355 10.734 0 24 0C37.2645 0 47.9996 10.734 47.9996 24C47.9996 37.2634 37.2495 47.9996 24 47.9996Z" fill="#F05136"/>
<path d="M24 0V47.9996C37.2495 47.9996 47.9996 37.2634 47.9996 24C47.9996 10.7344 37.2645 0 24 0Z" fill="#F05136"/>
<path d="M24 29.625C17.0167 29.625 10.3583 32.6777 5.49207 39.2783C15.1824 50.9916 33.119 50.8916 42.6786 39.0692C40.318 36.7211 35.001 29.625 24 29.625Z" fill="white"/>
<path d="M42.6786 39.0692C38.1654 44.6499 31.3938 47.9996 24 47.9996V29.625C35.0013 29.625 40.318 36.7218 42.6786 39.0692Z" fill="white"/>
<path d="M24 25.4062C19.3473 25.4062 15.5625 21.6211 15.5625 16.9688V14.1562C15.5625 9.50391 19.3473 5.71875 24 5.71875C28.6523 5.71875 32.4375 9.50391 32.4375 14.1562V16.9688C32.4375 21.6211 28.6523 25.4062 24 25.4062Z" fill="white"/>
<path d="M24 5.71875V25.4062C28.6527 25.4062 32.4375 21.6215 32.4375 16.9688V14.1562C32.4375 9.50354 28.6527 5.71875 24 5.71875Z" fill="white"/>
</g>
<defs>
<clipPath id="clip0">
<rect width="48" height="48" fill="white"/>
</clipPath>
</defs>
</svg>
